Genre: Drama | Romance
Language:English
IMDb:http://www.imdb.com/title/tt0879870/
Source:DVD9 RUS/AUDIO LINE LAP.Thx
Subtitles:English Where Needed

General
Complete name :Eat.Pray.Love.2010.R5.LiNE.H264.Feel-Free
Format : MPEG-4
Format profile : Base Media / Version 2
Codec ID : mp42
File size : 1.63 GiB
Duration : 2h 14mn
Overall bit rate : 1 732 Kbps
Video #1
Codec ID : avc1
Codec ID/Info : Advanced Video Coding
Duration : 2h 14mn
Bit rate mode : Variable
Bit rate : 1 250 Kbps
Width : 648 pixels
Height : 352 pixels
Display aspect ratio : 16:9
Frame rate mode : Constant
Frame rate : 23.976 fps
Resolution : 24 bits
Colorimetry : 4:2:0
Scan type : Progressive
Bits/(Pixel*Frame) : 0.229
Stream size : 1.17 GiB (72%)
Audio #2
ID : 2
Format : AAC
Format/Info : Advanced Audio Codec
Format version : Version 4
Format profile : LC
Format settings, SBR : No
Codec ID : 40
Duration : 2h 14mn
Bit rate mode : Constant
Bit rate : 477 Kbps
Nominal bit rate : 480 Kbps
Channel(s) : 6 channels
Channel positions : Front: L C R, Rear: L R, LFE
Sampling rate : 48.0 KHz
Resolution : 16 bits
Stream size : 459 MiB (28%)

Plot:
A married woman realizes how unhappy her marriage really is, and that her life needs to go in a different direction. After a painful divorce, she takes off on a round-the-world journey to "find herself".